# xmcd
#
# Track frame offsets:
#	150
#	17250
#	32325
#	46425
#	61800
#	77400
#	92700
#	107025
#	123075
#	139125
#	151650
#	165675
#	178350
#	197850
#	210975
#	223800
#	236475
#	251475
#
# Disc length: 3523 seconds
#
# Revision: 1
# Processed by: cddbd v1.5.1PL2 Copyright (c) Steve Scherf et al.
# Submitted via: audiograbber 1.83.01
#
DISCID=e50dc112
DTITLE=Pioneer - P207
DYEAR=1900
DGENRE=Karaoke Country
TTITLE0=Nelson, Willie - Always On My Mind
TTITLE1=Williams, Hank - Hey, Good Lookin'
TTITLE2=Williams, Hank - Kaw Liga
TTITLE3=Williams, Hank - Cold Cold Heart
TTITLE4=Sylvia - Nobody
TTITLE5=Rabbit, Eddie - Drivin' My Life Away
TTITLE6=Rabbit, Eddie - I Love A Rainy Night
TTITLE7=Newton, Juice - Queen Of Hearts
TTITLE8=Reddy, Helen - Delta Dawn
TTITLE9=Mandrell, Barbara - Sleeping Single In A Double Bed
TTITLE10=Parton, Dolly - Jolene
TTITLE11=Gibson, Don - Oh, Lonesome Me
TTITLE12=Rogers, Kenny - She Believes In Me
TTITLE13=Boone, Pat - Speedy Gonzales
TTITLE14=Campbell, Glen - By The Time I Get To Phoenix
TTITLE15=Price, Ray - Crazy Arms
TTITLE16=Robbins, Marty - El Paso
TTITLE17=Denver, John - Thank God I'M A Country Boy
EXTD=
EXTT0=
EXTT1=
EXTT2=
EXTT3=
EXTT4=
EXTT5=
EXTT6=
EXTT7=
EXTT8=
EXTT9=
EXTT10=
EXTT11=
EXTT12=
EXTT13=
EXTT14=
EXTT15=
EXTT16=
EXTT17=
PLAYORDER=
